<mxfile host="app.diagrams.net" agent="Mozilla/5.0 (Windows NT 10.0; Win64; x64) AppleWebKit/537.36 (KHTML, like Gecko) Chrome/129.0.0.0 Safari/537.36" version="24.8.0">
  <diagram name="Страница — 1" id="2AHVDdHY0NP4ThYKJDZ1">
    <mxGraphModel dx="1088" dy="518" grid="1" gridSize="10" guides="1" tooltips="1" connect="1" arrows="1" fold="1" page="1" pageScale="1" pageWidth="827" pageHeight="1169" math="0" shadow="0">
      <root>
        <mxCell id="0" />
        <mxCell id="1" parent="0" />
        <mxCell id="hjtHzjxplNrARDnm8BBK-1" value="Client device" style="shape=cube;whiteSpace=wrap;html=1;boundedLbl=1;backgroundOutline=1;darkOpacity=0.05;darkOpacity2=0.1;" vertex="1" parent="1">
          <mxGeometry x="100" y="200" width="120" height="80" as="geometry" />
        </mxCell>
        <mxCell id="hjtHzjxplNrARDnm8BBK-2" value="Web - server" style="shape=cube;whiteSpace=wrap;html=1;boundedLbl=1;backgroundOutline=1;darkOpacity=0.05;darkOpacity2=0.1;" vertex="1" parent="1">
          <mxGeometry x="320" y="170" width="180" height="140" as="geometry" />
        </mxCell>
        <mxCell id="hjtHzjxplNrARDnm8BBK-3" value="File server&amp;nbsp;" style="shape=cube;whiteSpace=wrap;html=1;boundedLbl=1;backgroundOutline=1;darkOpacity=0.05;darkOpacity2=0.1;" vertex="1" parent="1">
          <mxGeometry x="550" y="300" width="179.88" height="140" as="geometry" />
        </mxCell>
        <mxCell id="hjtHzjxplNrARDnm8BBK-4" value="Index server" style="shape=cube;whiteSpace=wrap;html=1;boundedLbl=1;backgroundOutline=1;darkOpacity=0.05;darkOpacity2=0.1;" vertex="1" parent="1">
          <mxGeometry x="530" y="50" width="180" height="140" as="geometry" />
        </mxCell>
        <mxCell id="hjtHzjxplNrARDnm8BBK-7" value="Website" style="rounded=0;whiteSpace=wrap;html=1;" vertex="1" parent="1">
          <mxGeometry x="360" y="230" width="120" height="60" as="geometry" />
        </mxCell>
        <mxCell id="hjtHzjxplNrARDnm8BBK-8" value="Web - server" style="text;html=1;align=center;verticalAlign=middle;whiteSpace=wrap;rounded=0;" vertex="1" parent="1">
          <mxGeometry x="350" y="200" width="90" height="30" as="geometry" />
        </mxCell>
        <mxCell id="hjtHzjxplNrARDnm8BBK-9" value="Indices" style="rounded=0;whiteSpace=wrap;html=1;" vertex="1" parent="1">
          <mxGeometry x="570" y="110" width="120" height="60" as="geometry" />
        </mxCell>
        <mxCell id="hjtHzjxplNrARDnm8BBK-10" value="Index server" style="text;html=1;align=center;verticalAlign=middle;whiteSpace=wrap;rounded=0;" vertex="1" parent="1">
          <mxGeometry x="560" y="80" width="100" height="30" as="geometry" />
        </mxCell>
        <mxCell id="hjtHzjxplNrARDnm8BBK-11" value="Files" style="rounded=0;whiteSpace=wrap;html=1;" vertex="1" parent="1">
          <mxGeometry x="580" y="360" width="120" height="60" as="geometry" />
        </mxCell>
        <mxCell id="hjtHzjxplNrARDnm8BBK-12" value="File server" style="text;html=1;align=center;verticalAlign=middle;whiteSpace=wrap;rounded=0;" vertex="1" parent="1">
          <mxGeometry x="550" y="310" width="100" height="30" as="geometry" />
        </mxCell>
        <mxCell id="hjtHzjxplNrARDnm8BBK-13" value="" style="endArrow=classic;startArrow=classic;html=1;rounded=0;exitX=0;exitY=0;exitDx=120;exitDy=50;exitPerimeter=0;entryX=0;entryY=0.571;entryDx=0;entryDy=0;entryPerimeter=0;" edge="1" parent="1" source="hjtHzjxplNrARDnm8BBK-1" target="hjtHzjxplNrARDnm8BBK-2">
          <mxGeometry width="50" height="50" relative="1" as="geometry">
            <mxPoint x="240" y="310" as="sourcePoint" />
            <mxPoint x="290" y="260" as="targetPoint" />
          </mxGeometry>
        </mxCell>
        <mxCell id="hjtHzjxplNrARDnm8BBK-14" value="" style="endArrow=classic;html=1;rounded=0;entryX=-0.019;entryY=0.482;entryDx=0;entryDy=0;entryPerimeter=0;" edge="1" parent="1" target="hjtHzjxplNrARDnm8BBK-4">
          <mxGeometry width="50" height="50" relative="1" as="geometry">
            <mxPoint x="410" y="170" as="sourcePoint" />
            <mxPoint x="460" y="120" as="targetPoint" />
          </mxGeometry>
        </mxCell>
        <mxCell id="hjtHzjxplNrARDnm8BBK-16" value="" style="endArrow=classic;startArrow=classic;html=1;rounded=0;entryX=0;entryY=0;entryDx=100;entryDy=140;entryPerimeter=0;exitX=0;exitY=0;exitDx=0;exitDy=60;exitPerimeter=0;" edge="1" parent="1" source="hjtHzjxplNrARDnm8BBK-3" target="hjtHzjxplNrARDnm8BBK-2">
          <mxGeometry width="50" height="50" relative="1" as="geometry">
            <mxPoint x="400" y="390" as="sourcePoint" />
            <mxPoint x="450" y="340" as="targetPoint" />
          </mxGeometry>
        </mxCell>
        <mxCell id="hjtHzjxplNrARDnm8BBK-17" value="" style="endArrow=classic;startArrow=classic;html=1;rounded=0;entryX=0;entryY=0;entryDx=100;entryDy=140;entryPerimeter=0;exitX=0;exitY=0;exitDx=79.875;exitDy=0;exitPerimeter=0;" edge="1" parent="1" source="hjtHzjxplNrARDnm8BBK-3" target="hjtHzjxplNrARDnm8BBK-4">
          <mxGeometry width="50" height="50" relative="1" as="geometry">
            <mxPoint x="620" y="270" as="sourcePoint" />
            <mxPoint x="670" y="220" as="targetPoint" />
          </mxGeometry>
        </mxCell>
        <mxCell id="hjtHzjxplNrARDnm8BBK-18" value="http" style="text;html=1;align=center;verticalAlign=middle;whiteSpace=wrap;rounded=0;" vertex="1" parent="1">
          <mxGeometry x="240" y="220" width="60" height="30" as="geometry" />
        </mxCell>
      </root>
    </mxGraphModel>
  </diagram>
</mxfile>
